<svg xmlns="http://www.w3.org/2000/svg" width="100" height="18.394"><defs><style>.a{fill:#fff}</style></defs><path class="a" d="M68.638 4.722v.9h-.03a1.922 1.922 0 00-1.807-1.056c-1.706 0-2.427 1.646-2.427 3.549 0 1.814.546 3.548 2.383 3.548a2.012 2.012 0 001.851-1.129h.03v1.079c0 .845-.1 2.114-1.91 2.114a6.655 6.655 0 01-2.069-.4v1.225a8.219 8.219 0 002.15.308c2.084 0 3.257-.8 3.257-2.82V4.722zm-1.407 5.8c-1.114 0-1.268-1.472-1.268-2.427 0-.984.175-2.4 1.276-2.4 1.079 0 1.4 1.348 1.4 2.333 0 1.049-.379 2.492-1.407 2.492M80.942 4.566c-2.048 0-3.068 1.008-3.068 3.628s1.02 3.629 3.068 3.629 3.06-1.022 3.06-3.629-1.019-3.628-3.06-3.628m0 6.18c-1.251 0-1.48-1.025-1.48-2.552s.229-2.551 1.48-2.551 1.472 1.019 1.472 2.551-.236 2.552-1.472 2.552M97.617 4.566a2.08 2.08 0 00-1.822 1.166h-.027V4.723h-1.464v10.06h1.464v-4.009h.029a1.942 1.942 0 001.786 1.05c1.626 0 2.42-1.523 2.42-3.687 0-1.961-.619-3.571-2.383-3.571m-.489 6.121c-1.042 0-1.362-1.231-1.362-2.485 0-1.122.372-2.5 1.347-2.5 1.138 0 1.3 1.421 1.3 2.492 0 1.305-.233 2.492-1.283 2.492M72.702 4.722h1.486v1.342h.029a2.229 2.229 0 012.173-1.5v1.558c-1.407 0-2.2.641-2.2 2.543v3h-1.488zM90.201 10.272h-.03a2.247 2.247 0 01-2.128 1.553c-1.313 0-1.874-1.064-1.874-2.288v-4.81h1.465v3.877c0 1.356.074 1.807.832 1.807 1.078 0 1.735-1.464 1.735-2.711V4.726h1.464v6.937h-1.464zM17.562 4.361c-2.753-.12-5.239.92-6.117 5.054-.815 3.834 1.124 5.366 3.877 5.487s5.238-.921 6.116-5.054c.815-3.835-1.124-5.368-3.876-5.487m.724 5.351c-.535 2.514-1.539 3.353-2.564 3.307s-1.684-.838-1.125-3.468c.535-2.517 1.54-3.354 2.565-3.308s1.683.838 1.124 3.469M48.23 4.728l-.368 1.735h4.58l-6.061 6.533-.326 1.533h8.225l.376-1.764h-4.465l4.58-4.947a7.44 7.44 0 001.776-3.091zM1.408 6.884c-.6 2.83 4.206 3.734 3.916 5.1-.258 1.21-2.668 1.1-4.926.523L0 14.385c2.289.652 7.87 1.327 8.632-2.261.617-2.9-4.294-3.849-4.023-5.125.233-1.1 2.856-.895 4.435-.458l.385-1.808c-2.264-.512-7.355-.979-8.021 2.154M33.222 4.728l-2.084 9.8h3.153l2.082-9.8zM37.513 1.883A2.162 2.162 0 0135.1 3.309c-1.14-.121-1.907-.957-1.714-1.867A2.163 2.163 0 0135.799.015c1.14.121 1.908.957 1.713 1.868M30.18 1.883a2.163 2.163 0 01-2.414 1.426c-1.139-.121-1.907-.957-1.714-1.867A2.165 2.165 0 0128.467.015c1.139.122 1.907.957 1.714 1.868M27.25 13.156l1.79-8.428h-3.152s-1.494 7.026-1.805 8.5l-1.1 5.168c2.106-.489 3.552-1.881 4.266-5.237M43.165 6.462h2.811l.369-1.735h-2.811l.7-3.286a5.364 5.364 0 00-3.962 4.2l-1.892 8.886h3.07z"/></svg>