<svg xmlns="http://www.w3.org/2000/svg" width="210" height="36.308"><defs><style>.a{fill:#221815}</style></defs><path class="a" d="M106.239.375a6.742 6.742 0 001.3.144 6.725 6.725 0 001.3-.144c4.158 4.589 8.286 9.15 12.53 13.741 0-4.59 0-12.443-.2-13.741a6.744 6.744 0 001.3.144 6.742 6.742 0 001.3-.144c-.463 8.4-.463 12.239-.463 19.919a5.54 5.54 0 00-1.182-.145 4.639 4.639 0 00-1.127.145q-5.938-7.012-12.621-14.031c-.057 2.165-.057 4.562-.057 6.727 0 4.619.085 6.235.171 7.3a7.523 7.523 0 00-1.356-.145 6.943 6.943 0 00-1.327.145c.144-.837.576-8.286.576-14.175 0-2.594-.115-4.355-.144-5.74zM128.701 8.371c0-3.233-.058-5.456-.232-8 .636.057 1.416.144 2.368.144s1.733-.086 2.367-.144c-.172 2.539-.23 4.763-.23 8v3.927c0 3.234.057 5.456.23 8-.634-.057-1.414-.145-2.367-.145s-1.732.087-2.368.145c.173-2.54.232-4.763.232-8zM146.717 4.273a3.425 3.425 0 00-3.5-2.484 2.79 2.79 0 00-3 2.6c0 4.272 8.775 3.205 8.775 9.758 0 3.868-3.059 6.523-7.65 6.523a8.229 8.229 0 01-4.646-1.24 29.4 29.4 0 00.838-3.667h.548a3.79 3.79 0 003.983 3.118c2.253 0 3.379-1.328 3.379-2.945 0-4.36-8.6-3.2-8.6-9.758 0-3.984 3.061-6.178 6.5-6.178a7.461 7.461 0 014.736 1.415c-.347.895-.549 1.588-.924 2.858zM161.15 4.273a3.424 3.424 0 00-3.489-2.484 2.792 2.792 0 00-3 2.6c0 4.272 8.777 3.205 8.777 9.758 0 3.868-3.062 6.523-7.651 6.523a8.238 8.238 0 01-4.649-1.241 28.9 28.9 0 00.838-3.667h.548a3.792 3.792 0 003.983 3.118c2.253 0 3.38-1.328 3.38-2.945 0-4.36-8.6-3.2-8.6-9.758 0-3.984 3.06-6.178 6.495-6.178a7.453 7.453 0 014.735 1.415c-.346.895-.548 1.588-.924 2.858zM180.119 10.651c-1.472-.028-2.915-.114-4.387-.114-1.445 0-2.917.057-4.389.114v1.647c0 3.234.057 5.456.23 8-.634-.057-1.415-.145-2.367-.145s-1.732.087-2.367.145c.172-2.54.231-4.763.231-8V8.371c0-3.233-.058-5.456-.231-8 .635.057 1.415.144 2.367.144s1.732-.083 2.366-.14c-.172 2.511-.23 4.734-.23 7.939.982.028 2.366.057 4.417.057s3.263-.029 4.36-.057c0-3.205-.058-5.429-.232-7.939.636.057 1.414.144 2.368.144s1.731-.087 2.367-.144c-.172 2.539-.23 4.763-.23 8v3.927c0 3.234.057 5.456.23 8-.636-.057-1.415-.145-2.367-.145s-1.732.087-2.367.145c.172-2.54.231-4.763.231-8zM205.264 9.7c0 6.294-3.031 9.181-6.5 9.181-3.233 0-6.062-2.136-6.062-8.285 0-4.966 2.309-8.95 6.264-8.95 3.729 0 6.298 3.059 6.298 8.054zm-17.293.635c0 7.218 4.909 10.335 11 10.335 6.438 0 11.03-4.647 11.03-10.363C210 3.349 205.178 0 199.058 0c-6.698 0-11.087 4.648-11.087 10.335zM105.706 29.347c0-1.83-.034-3.088-.131-4.526.964.016 1.946.081 2.908.081 1.6 0 2.975-.033 3.417-.081a3.686 3.686 0 00-.065.687 4.272 4.272 0 00.065.734c-1.242-.08-3.2-.2-3.694-.2-.082 1.192-.082 2.37-.082 3.562a113.86 113.86 0 003.711-.13 3.732 3.732 0 00-.082.736 4.823 4.823 0 00.082.67 46.032 46.032 0 00-3.711-.147c0 .687-.016 1.389-.016 2.091 0 .686.016 1.39.051 2.041a32.688 32.688 0 003.742-.211 4.12 4.12 0 00-.065.735 3.446 3.446 0 00.065.7c-.589-.016-1.356-.081-2.86-.081-2.664 0-3.106.049-3.465.081.1-1.437.131-2.7.131-4.526zM114.024 29.347c0-1.83-.033-3.088-.131-4.526.359.032.8.081 1.339.081s.981-.05 1.34-.081c-.1 1.438-.129 2.7-.129 4.526v2.221c0 1.21.015 2.451.032 3.3a32.643 32.643 0 003.743-.211 4.2 4.2 0 00-.066.735 3.5 3.5 0 00.066.7c-.59-.016-1.357-.081-2.859-.081-2.664 0-3.106.049-3.465.081.1-1.437.131-2.7.131-4.526zM122.045 29.347c0-1.83-.033-3.088-.131-4.526.964.016 1.944.081 2.909.081 1.6 0 2.973-.033 3.415-.081a3.759 3.759 0 00-.066.687 4.359 4.359 0 00.066.734c-1.242-.08-3.2-.2-3.694-.2-.082 1.192-.082 2.37-.082 3.562 1.422-.032 2.468-.064 3.71-.13a3.807 3.807 0 00-.082.736 5.145 5.145 0 00.082.67 46.007 46.007 0 00-3.71-.147c0 .687-.015 1.389-.015 2.091 0 .686.015 1.39.049 2.041a32.643 32.643 0 003.743-.211 4.2 4.2 0 00-.066.735 3.5 3.5 0 00.066.7c-.588-.016-1.357-.081-2.859-.081-2.664 0-3.106.049-3.465.081.1-1.437.131-2.7.131-4.526zM139.202 34.202a5.419 5.419 0 00-.359 1.387 7.121 7.121 0 01-3.333.719c-3.792 0-6.03-2.369-6.03-5.456 0-4.512 3.056-6.244 6.487-6.244a7.4 7.4 0 013.334.8 5.991 5.991 0 00-.376 1.669h-.23a3.347 3.347 0 00-2.811-1.455c-1.747 0-3.725 1.52-3.725 4.982 0 3.368 1.992 4.69 3.873 4.69a4.37 4.37 0 002.958-1.225zM143.19 27.483a10.65 10.65 0 00-.049-1.437c-.638 0-2.01.1-2.99.213a3.179 3.179 0 000-1.438c1.488.049 2.222.081 4.247.081s2.761-.033 4.152-.081a3.179 3.179 0 000 1.438 28.866 28.866 0 00-2.909-.213c-.033.23-.033.817-.033 1.437v4.086c0 1.83.033 3.089.131 4.526-.359-.033-.8-.081-1.341-.081s-.981.049-1.34.081c.1-1.437.131-2.7.131-4.526zM155.347 27.893a2.043 2.043 0 01-2.222 2.336 2.956 2.956 0 01-.359-.033c0-1.486.017-2.959.049-4.444 1.78.001 2.532.213 2.532 2.141zm.49 8.2c.49-.033 1-.081 1.488-.081s.98.049 1.47.081c-1.194-1.846-2.434-3.708-3.48-5.555a2.955 2.955 0 002.532-3.007 2.543 2.543 0 00-1.061-2.156c-.572-.409-1.176-.556-2.827-.556-1.111 0-1.814.081-2.4.081-.538 0-.98-.05-1.339-.081.1 1.438.131 2.7.131 4.526v2.221c0 1.83-.034 3.089-.131 4.526.359-.033.8-.081 1.339-.081s.981.049 1.34.081c-.1-1.437-.131-2.7-.131-4.526v-.67h.148zM169.234 30.099c0 3.563-1.716 5.2-3.675 5.2-1.832 0-3.433-1.209-3.433-4.69 0-2.81 1.309-5.065 3.546-5.065 2.109-.004 3.562 1.729 3.562 4.555zm-9.786.36c0 4.084 2.778 5.849 6.225 5.849a5.945 5.945 0 006.243-5.865c0-3.938-2.729-5.835-6.193-5.835-3.791 0-6.275 2.63-6.275 5.851zM174.007 24.821a3.36 3.36 0 001.47 0c2.352 2.6 4.688 5.179 7.091 7.777 0-2.6 0-7.042-.114-7.777a3.36 3.36 0 001.47 0c-.262 4.755-.262 6.928-.262 11.274a3.2 3.2 0 00-.67-.081 2.648 2.648 0 00-.636.081q-3.359-3.97-7.141-7.94c-.034 1.224-.034 2.582-.034 3.807 0 2.615.051 3.53.1 4.133a4.36 4.36 0 00-.769-.081 3.993 3.993 0 00-.75.081c.08-.473.328-4.688.328-8.022 0-1.471-.068-2.465-.083-3.252zM186.719 29.347c0-1.83-.032-3.088-.128-4.526.359.032.8.081 1.339.081s.98-.05 1.339-.081c-.1 1.438-.13 2.7-.13 4.526v2.221c0 1.83.032 3.089.13 4.526-.359-.033-.8-.081-1.339-.081s-.98.049-1.339.081c.1-1.437.128-2.7.128-4.526zM200.935 34.202a5.453 5.453 0 00-.357 1.387 7.128 7.128 0 01-3.334.719c-3.791 0-6.03-2.369-6.03-5.456 0-4.512 3.055-6.244 6.486-6.244a7.4 7.4 0 013.335.8 6.028 6.028 0 00-.376 1.669h-.228a3.35 3.35 0 00-2.811-1.455c-1.749 0-3.726 1.52-3.726 4.982 0 3.368 1.994 4.69 3.873 4.69a4.37 4.37 0 002.957-1.225zM207.814 27.028a1.937 1.937 0 00-1.976-1.405 1.58 1.58 0 00-1.7 1.47c0 2.419 4.967 1.814 4.967 5.522 0 2.189-1.73 3.693-4.329 3.693a4.664 4.664 0 01-2.63-.7 16.556 16.556 0 00.473-2.077h.31a2.146 2.146 0 002.255 1.764 1.68 1.68 0 001.912-1.667c0-2.466-4.868-1.813-4.868-5.522a3.441 3.441 0 013.675-3.5 4.232 4.232 0 012.681.8c-.2.508-.311.9-.524 1.619z"/><path d="M81.541 23.229H65.572c-2.447 0-3.08-.529-3.08-2.562 0-.208.105-.461.633-.461h18.416a.044.044 0 00.05-.043V.555c0-.021-.029-.039-.05-.039H62.66c-12.135 0-15.747 8.878-16.564 11.6a1.42 1.42 0 01-.269.2c-.218-.012-.318-.186-.318-.414V.566c0-.027-.015-.05-.056-.05h-22.47a.051.051 0 00-.053.05v10.856c0 .365-.178.526-.343.545-.19.026-.438-.123-.535-.5C21.139 8.034 16.221.516 7.511.516H.062C.022.516 0 .539 0 .566v35.406a.056.056 0 00.062.056h22.47a.055.055 0 00.055-.056V25.127c0-.376.171-.524.343-.55.2-.021.437.117.535.51.909 3.43 5.835 10.94 14.529 10.94h7.459a.051.051 0 00.056-.056V25.363a1.585 1.585 0 01.174-.25.293.293 0 01.374.157c2.649 7.246 8.078 10.758 16.6 10.758h16.964a9.159 9.159 0 001.994-.1c-.025 0-.025-12.671-.025-12.671.001-.014-.028-.028-.049-.028zM62.492 5.251a1.63 1.63 0 013.259 0v11.462a.4.4 0 01-.4.4h-2.468a.4.4 0 01-.391-.4z" fill="#00a0e8"/><path class="a" d="M92.422.481h2.716v35.501h-2.716z"/></svg>