<svg xmlns="http://www.w3.org/2000/svg" width="60" height="60"><defs><style>.b{fill:none;stroke:#273846;stroke-width:1.5px}</style></defs><path fill="none" d="M0 0h60v60H0z"/><path class="b" d="M23.522 16.219h15.709M23.522 22.11h15.709M23.522 28.001h15.709"/><path d="M17.92 35.23a4.374 4.374 0 01-.35 1.06 13.742 13.742 0 01-1.18 2.33 28.723 28.723 0 00-2.6-1.74l-.5.53a18.938 18.938 0 012.69 1.81A10.652 10.652 0 0112 42.56a1.782 1.782 0 01.52.6 11.941 11.941 0 004.02-3.48 14.317 14.317 0 012.18 2.17l.56-.62a25.708 25.708 0 00-2.3-2.15 16.356 16.356 0 001.47-2.92 2.816 2.816 0 01.31-.61zm5.09 1.97a9.925 9.925 0 011.06-.04h3.84a9.925 9.925 0 011.06.04v-.81a6.225 6.225 0 01-1.07.06h-3.82a6.225 6.225 0 01-1.07-.06zM22 41.98a9.032 9.032 0 011.15-.05h5.69a8.937 8.937 0 011.15.05v-.84a7.131 7.131 0 01-1.16.06h-5.67a7.131 7.131 0 01-1.16-.06zm15.22.43c.21-1.05.29-1.55.52-3.14a1.853 1.853 0 01.16-.7l-.33-.29a1.01 1.01 0 01-.47.07h-2.68a5.233 5.233 0 01-.89-.06v.72a4.47 4.47 0 01.88-.04h2.67c-.09.9-.32 2.37-.55 3.44h-3.04a4.19 4.19 0 01-.9-.06v.73a5.376 5.376 0 01.91-.05h4.9a5.523 5.523 0 01.91.05v-.73a4.135 4.135 0 01-.9.06zm4.65-2.84a10.924 10.924 0 011.24-.04h5.8a11.44 11.44 0 011.22.04v-.81a7.887 7.887 0 01-1.21.05h-5.81a7.074 7.074 0 01-1.24-.06z" fill="#273846"/></svg>