<svg xmlns="http://www.w3.org/2000/svg" width="60" height="60"><path fill="none" d="M0 0h60v60H0z"/><path d="M28.89 41.95a8.47 8.47 0 01.97.04 7.073 7.073 0 01-.03-.75v-.97c0-.24.01-.47.03-.72-.26.02-.49.03-.91.03h-1.38c.01-.23.01-.3.01-.5v-.37h.56a7.522 7.522 0 01.89.04v-.6a9.369 9.369 0 001.32.85 2.083 2.083 0 01.38-.58 7.565 7.565 0 01-2.05-1.31 5.867 5.867 0 01-1.12-1.33h-.69a6.676 6.676 0 01-2.72 2.73 1.428 1.428 0 01.41.5 10.451 10.451 0 001.08-.82v.56a7.631 7.631 0 01.89-.04h.46v.87h-1.3a6.829 6.829 0 01-.88-.03 5.792 5.792 0 01.03.65v1.17a6.133 6.133 0 01-.03.62 8 8 0 01.91-.04h.98a3.435 3.435 0 01-2.69 2.19 1.674 1.674 0 01.38.56 6.4 6.4 0 001.68-.88 3.521 3.521 0 001.17-1.62 5.193 5.193 0 003.01 2.5 2.428 2.428 0 01.37-.61 4.532 4.532 0 01-2.93-2.14zm-2.36-3.78c-.37 0-.6-.01-.83-.03a7.171 7.171 0 001.53-1.86 7.2 7.2 0 001.78 1.86c-.24.02-.47.03-.87.03zm.44 1.93a9.043 9.043 0 01-.14 1.34h-1.41V40.1zm2.28 0v1.34h-1.83a10.867 10.867 0 00.14-1.34zm-5.39-1.89a5.991 5.991 0 01.62.03v-.63a3.547 3.547 0 01-.63.04h-.39v-.99a6.529 6.529 0 01.05-1.02h-.69a5.987 5.987 0 01.05 1.03v.98h-.64a4.156 4.156 0 01-.7-.04v.64a4.31 4.31 0 01.7-.04h.53a9.525 9.525 0 01-1.46 3.5 2.032 2.032 0 01.4.57 8.127 8.127 0 00.94-2.1c.19-.67.19-.67.28-.98-.03.6-.05 1.13-.05 1.58v2.83a8.5 8.5 0 01-.06 1.16h.71a8.107 8.107 0 01-.06-1.16v-3.04c0-.47-.02-1.16-.04-1.61a7.94 7.94 0 00.87 1.75 2.245 2.245 0 01.36-.51 6.218 6.218 0 01-1.14-1.99zm8.09 3.86a4.636 4.636 0 01.7-.04c.68-.01 1.63-.04 2.95-.1v1.89a4.351 4.351 0 01-.06.91h.78a4.408 4.408 0 01-.07-.91V41.9c1.19-.05 1.19-.05 2.85-.18.29.33.39.44.7.82l.47-.42a14.989 14.989 0 00-2.02-1.95l-.45.33c.41.34.55.47.85.75-1.72.11-1.72.11-3.1.15a14.251 14.251 0 002.06-1.73c.14-.15.24-.24.34-.33l-.65-.32a6.956 6.956 0 01-1.56 1.61c-.42-.34-.44-.35-.86-.66a11.269 11.269 0 001.27-1.37h3.32v1.34h.67a3.951 3.951 0 01-.04-.65v-.68a3.618 3.618 0 01.04-.6 9.291 9.291 0 01-1 .04h-2.93v-.96h2.95a10.032 10.032 0 011.1.05v-.67a7.35 7.35 0 01-1.1.06h-2.95v-.17a3.325 3.325 0 01.07-.7h-.76a3.26 3.26 0 01.07.7v.17H32.9a7.5 7.5 0 01-1.11-.06v.67a7.923 7.923 0 011.1-.05h2.7v.96h-2.7a9.655 9.655 0 01-1-.04 4.057 4.057 0 01.04.64v.65a4.005 4.005 0 01-.04.63h.67V38.6h2.83a5.5 5.5 0 01-.96 1.05c-.28-.19-.4-.26-.77-.49l-.41.43a16.294 16.294 0 012.03 1.4c-.18.14-.18.14-.38.28-.05.03-.11.08-.21.15-.72.02-.87.02-1.5.02a9.915 9.915 0 01-1.36-.06zm2.22.24a4.145 4.145 0 01-1.04.92 5.308 5.308 0 01-1.33.64 1.913 1.913 0 01.49.53 6.887 6.887 0 002.42-1.76zm2.99.29a9.033 9.033 0 002.6 1.77 2.365 2.365 0 01.44-.56 7.238 7.238 0 01-2.56-1.59z" fill="#273846"/><path d="M28.497 24.244a4.432 4.432 0 10-4.432-4.432 4.432 4.432 0 004.432 4.432zm3.359.291a5.794 5.794 0 111.364-1.364l3.808 3.808a.95.95 0 010 1.347l-.016.016a.954.954 0 01-1.347 0z" fill-rule="evenodd" fill="#273846"/></svg>