<svg xmlns="http://www.w3.org/2000/svg" width="334.383" height="33.711"><defs><clipPath id="a"><path fill="none" d="M0 0h334.383v33.71H0z"/></clipPath><style>.c{fill:#fff}</style></defs><g clip-path="url(#a)"><path class="c" d="M3.515 2.591a23.21 23.21 0 00-.333 4.145v19.833a22.931 22.931 0 00.333 4.144H0a22.4 22.4 0 00.3-4.144V6.736A22.142 22.142 0 000 2.591zM37.854 10.583a8.625 8.625 0 00-1.739-3.256 8.1 8.1 0 00-6.4-2.664c-5.994 0-9.768 4.588-9.768 11.951 0 7.327 3.811 11.99 9.768 11.99a8.431 8.431 0 006.92-3.109 8.268 8.268 0 001.48-3.7l3.071.74a11.953 11.953 0 01-2 4.4c-2.072 2.776-5.439 4.292-9.583 4.292a11.785 11.785 0 01-8.659-3.255c-2.59-2.591-4-6.624-4-11.249 0-4.774 1.48-8.807 4.218-11.508a11.689 11.689 0 018.478-3.143 11.278 11.278 0 018.288 3 11.323 11.323 0 012.886 4.663zM63.607 26.531a22.83 22.83 0 00.3 4.182h-3.483a21.985 21.985 0 00.3-4.182V5.18h-5.776a26.713 26.713 0 00-4.255.259V2.332a26.206 26.206 0 004.218.259h14.431a26.154 26.154 0 004.367-.259v3.107a26.745 26.745 0 00-4.367-.259h-5.735zM85.658 6.438c.7.038 1.073.038 1.332.038.518 0 .962-.038 2.109-.111 2.073-.148 2.294-.185 6.846-.444l5.809-.37c4.551-.259 5.032-.3 6.254-.333l2.109-.074a24.8 24.8 0 004.4-.408l.222 2.739a15.519 15.519 0 00-4.144.518 18.209 18.209 0 00-7.105 3.7c-2.96 2.48-4.551 5.477-4.551 8.548 0 3.108 1.887 5.587 5.18 6.845a18.974 18.974 0 005.551 1.185h.37l-.481 3c-.407-.075-.481-.112-1.147-.222-3.664-.629-5.884-1.406-7.993-2.85a8.959 8.959 0 01-4.107-7.549c0-4.292 2.516-8.362 6.919-11.359a24.286 24.286 0 013.516-1.961 75.777 75.777 0 01-8.141.814c-7.364.518-11.434.888-12.766 1.221zm24.755 5.514a28.1 28.1 0 013.811 5.736l-1.887 1.11a26.051 26.051 0 00-3.774-5.884zm4.181-2.035a30.035 30.035 0 013.812 5.772l-1.851 1.037a29.257 29.257 0 00-3.774-5.81zM153.85 5.662a22.471 22.471 0 004.144-.26v2.665a30.286 30.286 0 00-4.107-.222h-8.844v6.661h11.064a23.275 23.275 0 004.144-.26v2.664a31.451 31.451 0 00-4.144-.222h-10.065a36.346 36.346 0 0015.023 12.656 9.879 9.879 0 00-1.628 2.294 39.374 39.374 0 01-8.585-6.143 31.327 31.327 0 01-5.957-7.512c.111 2.147.148 3.072.148 4v8.068a20.719 20.719 0 00.259 3.663h-2.886a20.437 20.437 0 00.259-3.663v-7.997c0-1.147.037-1.776.148-4a31.689 31.689 0 01-5.365 6.845 40.194 40.194 0 01-8.548 6.513 9.505 9.505 0 00-1.665-2.109 38.715 38.715 0 0014.431-12.619h-9.287a35.776 35.776 0 00-4.071.222v-2.66a26.431 26.431 0 004.071.26h10.286V7.845H134.5a35.075 35.075 0 00-4.07.222V5.4a26.107 26.107 0 004.07.26h8.178V3.034A18.5 18.5 0 00142.453 0h2.812a13.132 13.132 0 00-.222 3.034v2.628zM193.071 16.171a36.325 36.325 0 004.4-8.474l2.294.925a54.937 54.937 0 01-4.107 7.549h5.476a19.815 19.815 0 004.07-.26v2.628a31.082 31.082 0 00-4.144-.223h-10.284a37.664 37.664 0 004.885 5.144 34.29 34.29 0 009.991 6.254 10.488 10.488 0 00-1.592 2.294 40.367 40.367 0 01-9.324-6.291 33.477 33.477 0 01-5.218-6.216c.111 2.035.148 3.034.148 4v6.619a19.914 19.914 0 00.259 3.59h-2.812a20.094 20.094 0 00.26-3.59V23.5c0-1.11.036-1.739.147-3.959a29.986 29.986 0 01-6.956 7.955 42.726 42.726 0 01-6.624 4.515 9.316 9.316 0 00-1.665-2.147 38.457 38.457 0 0010.287-7.216 33.029 33.029 0 003.774-4.329h-9.658a37.266 37.266 0 00-4.07.223v-2.631a25.3 25.3 0 004.033.26h10.732v-9.7h-8.844a33.6 33.6 0 00-3.96.223V4.107a26.251 26.251 0 004.033.26h8.771V3.145a18.965 18.965 0 00-.223-3.071h2.738a13.94 13.94 0 00-.222 3.071v1.222h9.434a20.744 20.744 0 004.107-.26V6.7a29.066 29.066 0 00-4.033-.223h-9.51v9.7zM179.6 7.66a45.112 45.112 0 013.663 6.846l-2.072 1.072a35.2 35.2 0 00-3.59-6.956zM227.48 6.032a15.683 15.683 0 001.775-5.069l2.961.517a7.921 7.921 0 00-.963 2c-.48 1.185-.961 2.184-1.146 2.517a6.275 6.275 0 01.776-.037c5.921-.3 9.621-.74 11.657-1.406l.221 2.516a11.175 11.175 0 00-1.479.185 119.8 119.8 0 01-12.211.962 27.331 27.331 0 01-3.33 5.254c-.37.444-1.111 1.3-1.259 1.406a6.286 6.286 0 00-.481.37.036.036 0 01-.037.037v.037a.274.274 0 00.075.111c1.332-1.036 1.332-1.036 1.7-1.294a9.84 9.84 0 015.587-1.814 4.491 4.491 0 014.884 4.107c2.7-1.073 4.811-1.85 6.439-2.442a8.154 8.154 0 002.516-1.073l1.184 2.591a61.3 61.3 0 00-9.88 3.256c.074.961.074 1.332.074 2.256 0 .482 0 1.3-.037 2.036-.037.814-.037 1.332-.037 1.665a8.042 8.042 0 00.074 1.332l-2.516.037a53.228 53.228 0 00.222-5.328 9.749 9.749 0 00-.037-1.111c-5.032 2.368-6.957 4.108-6.957 6.328 0 2.442 2.294 3.515 7.512 3.515a31.04 31.04 0 009.88-1.442l.333 2.848a14.333 14.333 0 00-1.481.186 57.509 57.509 0 01-8.991.739c-6.624 0-9.843-1.887-9.843-5.7 0-2.035 1.258-3.959 3.775-5.846a28.661 28.661 0 015.513-2.961c-.3-2.035-1.184-2.923-2.923-2.923-2.331 0-5.254 1.369-8.252 3.922a12.26 12.26 0 00-2.849 3.071l-2.072-2.072c2.553-1.961 5.624-5.846 8.288-10.582l.334-.555a4.109 4.109 0 01-.7.074c-.593 0-4.07-.074-5.44-.112h-.592a6.39 6.39 0 00-.814.038l.037-2.553a51.772 51.772 0 007.918.407zM265.96 4.145a30.151 30.151 0 00-.26-3.959h2.811a24.058 24.058 0 00-.259 3.921v3.368h1.665a16.38 16.38 0 002.783-.185v2.368a23.685 23.685 0 00-2.85-.148h-1.591v6.92a42.249 42.249 0 004.292-2.073v2.332c-2.219 1.11-2.96 1.48-4.292 2.072V30.75a2.246 2.246 0 01-.962 2.108 5.992 5.992 0 01-3 .445c-.925 0-1.517-.037-2.7-.112a6.708 6.708 0 00-.555-2.331 32.519 32.519 0 003.627.223c1.036 0 1.294-.223 1.294-1V19.8c-.74.333-1.147.481-2.886 1.221-.962.407-1.406.629-1.85.851l-.74-2.516a30.564 30.564 0 005.476-1.924V9.51h-2.22a19.953 19.953 0 00-3.034.185V7.253a18.489 18.489 0 003.034.222h2.22zm10.694.37a41.666 41.666 0 00-4.4.221V2.109a31.272 31.272 0 004.4.223h13.1a27.963 27.963 0 004.219-.223v2.627a31.177 31.177 0 00-4.219-.221h-7.77a38.933 38.933 0 01-3.922 11.137h10.953a21.64 21.64 0 003.293-.147 27.264 27.264 0 00-.148 3.7v9.879a29.342 29.342 0 00.259 4.626h-2.629v-2.368H278.5v2.368h-2.553a33.563 33.563 0 00.222-4.44V18.761a33.333 33.333 0 01-4.959 5.957 7.946 7.946 0 00-1.628-1.887 26.627 26.627 0 007.586-10.472 30.688 30.688 0 002.294-7.844zm1.85 24.717h11.285V17.8H278.5zM327.9 3.034c-.407.333-.7.593-4.552 4.293a107.4 107.4 0 01-8.51 6.993c-1.369 1.036-1.628 1.332-1.628 1.851 0 .666.295.925 3.294 3.256a109.09 109.09 0 0111.84 10.1 9.318 9.318 0 001.036.925l-2.332 2.3a34.8 34.8 0 00-4.772-5.069c-2.48-2.3-3.96-3.516-9.362-7.735-2.073-1.628-2.664-2.441-2.664-3.7a3.584 3.584 0 011.073-2.479 28.589 28.589 0 013.145-2.516c4.921-3.775 9.546-8.1 10.842-10.139z"/></g></svg>