<svg xmlns="http://www.w3.org/2000/svg" width="1011.98" height="99.551"><defs><clipPath id="a"><path fill="none" d="M0 0h1011.981v99.551H0z"/></clipPath><style>.c{fill:#fff}</style></defs><g style="isolation:isolate" clip-path="url(#a)"><path class="c" d="M7.37 8.14a58.252 58.252 0 00-.88 11.44v58.851a57.526 57.526 0 00.88 11.439H0a58.954 58.954 0 00.88-11.439V19.58A59.7 59.7 0 000 8.14zM113.409 30.141c-1.87-5.061-3.08-7.261-5.39-9.9-4.84-5.5-11.88-8.47-20.46-8.47-18.92 0-30.91 14.409-30.91 37.18 0 22.66 11.99 37.07 30.91 37.07 9.24 0 16.94-3.521 21.89-9.9 2.53-3.41 3.74-6.16 4.84-11.219l5.94 1.87c-1.87 5.72-3.08 8.25-5.17 11.439-6.05 8.471-15.84 13.091-28.05 13.091-9.9 0-18.37-3.19-24.42-9.24-7.7-7.59-11.77-19.141-11.77-33s4.07-25.41 11.88-33.11C68.859 9.68 77 6.6 87.229 6.6c10.01 0 18.04 2.971 23.76 8.58 3.52 3.521 5.39 6.49 8.14 12.87zM188.019 78.431a57.525 57.525 0 00.88 11.439h-7.37a58.955 58.955 0 00.88-11.439v-65.12h-18.37a65.113 65.113 0 00-11.44.769V7.37a63.38 63.38 0 0011.44.77H206.5c5.61 0 7.92-.109 11.44-.77v6.71a64.294 64.294 0 00-11.44-.769h-18.48zM255.378 20.13l3.96.11c1.211 0 2.641-.11 5.941-.33 4.51-.44 4.51-.44 53.13-3.41 16.06-.77 18.59-.99 20.9-1.651l.55 5.391a56.249 56.249 0 00-15.18 2.42 52.394 52.394 0 00-22.33 14.3c-6.6 7.15-9.79 14.52-9.79 22.33 0 11.77 7.7 20.131 22 24.091a37.3 37.3 0 0010.78 1.649l-.99 5.941c-1.21-.22-1.65-.33-3.3-.661-8.25-1.65-13.31-3.41-18.7-6.379-9.68-5.611-14.85-13.971-14.85-24.2 0-10.12 4.84-20.02 13.97-28.38a46.926 46.926 0 0114.96-9.57c1.21-.44 2.2-.77 4.4-1.65l-.11-.33c-8.58 1.54-8.58 1.54-23.98 2.53-23.76 1.54-35.64 2.64-41.03 3.74zm73.151 14.85a115.891 115.891 0 0111.33 17.161l-4.07 2.419a89.964 89.964 0 00-11.11-17.49zm11.66-5.61A112.014 112.014 0 01351.3 45.98l-4.07 2.42a101.04 101.04 0 00-10.78-16.94zM400.4 48.29a103.341 103.341 0 00-11.55.66v-5.61a75.224 75.224 0 0011.55.77h31.68V22h-25.3a103.1 103.1 0 00-11.55.66v-5.61a75.224 75.224 0 0011.55.77h25.3V9.46a59.755 59.755 0 00-.66-9.46h6.05a43.37 43.37 0 00-.66 9.46v8.36h27.28a64.726 64.726 0 0011.88-.77v5.61a85.83 85.83 0 00-11.88-.66h-27.28v22.11h34.21a64.726 64.726 0 0011.88-.77v5.61a85.987 85.987 0 00-11.88-.66h-31.68a104.888 104.888 0 0026.51 28.381 106.032 106.032 0 0019.14 11.439 22.014 22.014 0 00-3.63 4.4c-9.68-5.391-14.74-8.8-21.45-14.521-10.56-8.91-16.5-16.059-23.54-28.269.33 7.149.44 9.46.44 12.649v26.512a54.039 54.039 0 00.77 10.449h-6.27a56.326 56.326 0 00.77-10.449V62.37c0-3.519.11-5.609.44-12.54-6.49 11.44-14.08 20.351-24.97 29.37a122.582 122.582 0 01-18.04 12.54 16.121 16.121 0 00-3.74-3.96c19.91-10.889 32.01-21.78 43.67-39.49zM609.188 48.731c6.49 0 9.351-.22 11.881-.771v5.5a86.013 86.013 0 00-11.881-.66h-32.67a107.136 107.136 0 0045.54 36.3 17.375 17.375 0 00-3.41 4.4 124.193 124.193 0 01-22.989-14.41c-9.24-7.48-14.851-13.75-21.891-24.53.33 7.149.441 9.46.441 12.649v21.672a54.041 54.041 0 00.769 10.449h-6.16a56.32 56.32 0 00.771-10.449V67.21c0-3.519.109-5.609.439-12.54-6.16 10.011-11 15.841-18.59 22.551a140.81 140.81 0 01-23.32 16.39 17.917 17.917 0 00-3.63-4.071c18.92-9.79 31.57-20.679 42.57-36.74H536.7a103.341 103.341 0 00-11.55.66v-5.5a75.217 75.217 0 0011.55.771h32.891V17.6h-26.843a103.337 103.337 0 00-11.55.659v-5.5a75.226 75.226 0 0011.55.771h26.841V9.68a59.754 59.754 0 00-.661-9.46h5.94a43.382 43.382 0 00-.659 9.46v3.851h28.71c6.49 0 9.349-.22 11.88-.771v5.5a86.011 86.011 0 00-11.88-.659h-28.71v31.13h11.219c6.821-10.011 10.231-16.281 14.191-26.62l4.51 2.309A176.464 176.464 0 01590.6 48.731zm-57.2-2.97a108.668 108.668 0 00-11.55-21.45l3.85-1.981a149.811 149.811 0 0111.77 20.9zM694.149 18.59c3.41-7.04 5.391-12.54 5.721-15.729l5.939 1.54c-1.1 1.54-1.1 1.54-2.97 6.269a48.411 48.411 0 01-3.74 8.03c1.21-.33 1.43-.33 7.151-.549a212.286 212.286 0 0024.2-2.42 26.187 26.187 0 006.269-1.651l.66 5.17a43.577 43.577 0 00-4.4.55 279.113 279.113 0 01-35.75 2.971c-4.29 8.25-8.03 14.08-12.43 19.25-1.1 1.21-2.31 2.42-5.17 5.279l.22.221c.99-.771 1.651-1.321 2.2-1.76a49.548 49.548 0 015.28-3.851 30.34 30.34 0 0116.72-4.95 13.19 13.19 0 0110.89 5.5 13.872 13.872 0 012.42 6.931c5.17-2.2 14.631-5.721 20.351-7.811 5.059-1.87 5.389-1.979 7.04-3.189l2.86 5.279c-5.721 1.1-17.82 5.28-29.7 10.231a62.236 62.236 0 01.219 6.82c0 1.979 0 5.279-.11 7.37-.109 2.42-.109 4.619-.109 5.72a28.147 28.147 0 00.109 2.86h-5.059c.439-2.421.769-10.011.769-17.051 0-1.87 0-2.309-.109-3.849-16.281 7.59-22.881 13.42-22.881 20.679 0 7.811 7.591 11.55 23.761 11.55 10.12 0 22.66-1.87 28.379-4.07l.88 5.83c-1.54.109-2.089.22-4.07.439a158.266 158.266 0 01-25.739 2.311c-18.811 0-28.051-5.28-28.051-15.95 0-5.72 3.521-11.111 10.78-16.5 3.741-2.75 9.13-5.611 16.5-8.91-.99-6.93-3.96-10.01-9.679-10.01-7.261 0-16.391 4.29-25.521 11.88-4.18 3.41-6.49 5.939-7.92 8.469l-4.29-4.29c8.03-6.16 18.481-19.69 25.63-33.219l.44-.661c.11-.219.22-.33.331-.549-.441 0-1.321.109-2.09.109-1.981 0-13.311-.22-17.381-.33h-1.21a26.965 26.965 0 00-2.75.11l.221-5.28c3.519.771 12.759 1.32 22.219 1.32h1.87zM815.98 91.74c0 4.84-2.2 6.38-9.35 6.38-2.859 0-6.27-.109-9.02-.329a13.866 13.866 0 00-1.1-4.73 76.387 76.387 0 0010.78.769c3.19 0 4.07-.659 4.07-2.969V56.87c-1.76.88-1.76.88-9.46 4.4-1.87.88-3.96 1.87-5.39 2.75l-2.09-5.17c3.74-.88 7.04-2.2 16.94-6.71v-25.3h-7.04a81.834 81.834 0 00-9.24.551V22.22a55.433 55.433 0 009.13.66h7.15V12.43a95.081 95.081 0 00-.77-11.88h6.16a72.127 72.127 0 00-.77 11.66v10.67h4.73a56.6 56.6 0 009.02-.55v5.061a80.288 80.288 0 00-9.24-.551h-4.51v22.99c5.72-2.859 7.81-3.96 13.2-7.149v4.84c-5.83 3.3-8.251 4.62-13.2 7.04zm25.741-80.08a119.446 119.446 0 00-12.87.661v-5.5a90.042 90.042 0 0012.87.66H881.1a79.961 79.961 0 0012.1-.66v5.5a82.7 82.7 0 00-12.1-.661h-24.97c-2.97 14.741-6.38 24.531-12.869 36.191h34.76a64.391 64.391 0 0010.009-.441 76.981 76.981 0 00-.439 11V85.8a85.523 85.523 0 00.769 13.75h-5.389v-7.48H845.79v7.48h-5.28a102.852 102.852 0 00.66-13.311V51.481A100.8 100.8 0 01824.34 72.6a16.887 16.887 0 00-3.739-3.63 81.9 81.9 0 0019.359-24.09 99.656 99.656 0 0011.221-33.22zM845.79 88h37.181V51.92H845.79zM997.142 8.03c-.551.439-.551.439-13.53 12.979-5.612 5.281-10.561 9.46-24.971 20.681-4.29 3.41-5.06 4.29-5.06 5.83 0 2.2.99 3.08 9.79 9.9a341.508 341.508 0 0135.529 30.8 29.5 29.5 0 003.08 2.75l-4.84 4.621c-2.641-3.741-7.04-8.471-14.19-15.071-7.15-6.71-11.55-10.34-27.609-22.88-5.61-4.4-7.26-6.6-7.26-9.79a8.823 8.823 0 013.081-6.49c1.1-1.21 1.209-1.21 9.019-7.26 13.75-10.45 28.16-24.2 31.681-30.03z"/></g></svg>